<?xml version="1.0" encoding="utf-8" standalone="no"?>
<!DOCTYPE svg PUBLIC "-//W3C//DTD SVG 1.1//EN"
  "http://www.w3.org/Graphics/SVG/1.1/DTD/svg11.dtd">
<!-- Created with matplotlib (https://matplotlib.org/) -->
<svg height="92.645469pt" version="1.1" viewBox="0 0 151.187031 92.645469" width="151.187031pt" xmlns="http://www.w3.org/2000/svg" xmlns:xlink="http://www.w3.org/1999/xlink">
 <defs>
  <style type="text/css">
*{stroke-linecap:butt;stroke-linejoin:round;}
  </style>
 </defs>
 <g id="figure_1">
  <g id="patch_1">
   <path d="M 0 92.645469 
L 151.187031 92.645469 
L 151.187031 0 
L 0 0 
z
" style="fill:#ffffff;"/>
  </g>
  <g id="axes_1">
   <g id="patch_2">
    <path d="M 32.387031 61.56 
L 143.987031 61.56 
L 143.987031 7.2 
L 32.387031 7.2 
z
" style="fill:#ffffff;"/>
   </g>
   <g id="patch_3">
    <path clip-path="url(#p8e15d0d21d)" d="M 37.459759 61.56 
L 40.841577 61.56 
L 40.841577 52.423866 
L 37.459759 52.423866 
z
" style="fill:#737373;"/>
   </g>
   <g id="patch_4">
    <path clip-path="url(#p8e15d0d21d)" d="M 40.841577 61.56 
L 44.223395 61.56 
L 44.223395 28.06084 
L 40.841577 28.06084 
z
" style="fill:#737373;"/>
   </g>
   <g id="patch_5">
    <path clip-path="url(#p8e15d0d21d)" d="M 44.223395 61.56 
L 47.605213 61.56 
L 47.605213 34.151597 
L 44.223395 34.151597 
z
" style="fill:#737373;"/>
   </g>
   <g id="patch_6">
    <path clip-path="url(#p8e15d0d21d)" d="M 47.605213 61.56 
L 50.987031 61.56 
L 50.987031 40.242353 
L 47.605213 40.242353 
z
" style="fill:#737373;"/>
   </g>
   <g id="patch_7">
    <path clip-path="url(#p8e15d0d21d)" d="M 50.987031 61.56 
L 54.368849 61.56 
L 54.368849 9.788571 
L 50.987031 9.788571 
z
" style="fill:#737373;"/>
   </g>
   <g id="patch_8">
    <path clip-path="url(#p8e15d0d21d)" d="M 54.368849 61.56 
L 57.750668 61.56 
L 57.750668 34.151597 
L 54.368849 34.151597 
z
" style="fill:#737373;"/>
   </g>
   <g id="patch_9">
    <path clip-path="url(#p8e15d0d21d)" d="M 57.750668 61.56 
L 61.132486 61.56 
L 61.132486 31.106218 
L 57.750668 31.106218 
z
" style="fill:#737373;"/>
   </g>
   <g id="patch_10">
    <path clip-path="url(#p8e15d0d21d)" d="M 61.132486 61.56 
L 64.514304 61.56 
L 64.514304 43.287731 
L 61.132486 43.287731 
z
" style="fill:#737373;"/>
   </g>
   <g id="patch_11">
    <path clip-path="url(#p8e15d0d21d)" d="M 64.514304 61.56 
L 67.896122 61.56 
L 67.896122 49.378487 
L 64.514304 49.378487 
z
" style="fill:#737373;"/>
   </g>
   <g id="patch_12">
    <path clip-path="url(#p8e15d0d21d)" d="M 67.896122 61.56 
L 71.27794 61.56 
L 71.27794 46.333109 
L 67.896122 46.333109 
z
" style="fill:#737373;"/>
   </g>
   <g id="patch_13">
    <path clip-path="url(#p8e15d0d21d)" d="M 71.27794 61.56 
L 74.659759 61.56 
L 74.659759 55.469244 
L 71.27794 55.469244 
z
" style="fill:#737373;"/>
   </g>
   <g id="patch_14">
    <path clip-path="url(#p8e15d0d21d)" d="M 74.659759 61.56 
L 78.041577 61.56 
L 78.041577 40.242353 
L 74.659759 40.242353 
z
" style="fill:#737373;"/>
   </g>
   <g id="patch_15">
    <path clip-path="url(#p8e15d0d21d)" d="M 78.041577 61.56 
L 81.423395 61.56 
L 81.423395 28.06084 
L 78.041577 28.06084 
z
" style="fill:#737373;"/>
   </g>
   <g id="patch_16">
    <path clip-path="url(#p8e15d0d21d)" d="M 81.423395 61.56 
L 84.805213 61.56 
L 84.805213 46.333109 
L 81.423395 46.333109 
z
" style="fill:#737373;"/>
   </g>
   <g id="patch_17">
    <path clip-path="url(#p8e15d0d21d)" d="M 84.805213 61.56 
L 88.187031 61.56 
L 88.187031 55.469244 
L 84.805213 55.469244 
z
" style="fill:#737373;"/>
   </g>
   <g id="patch_18">
    <path clip-path="url(#p8e15d0d21d)" d="M 88.187031 61.56 
L 91.568849 61.56 
L 91.568849 52.423866 
L 88.187031 52.423866 
z
" style="fill:#737373;"/>
   </g>
   <g id="patch_19">
    <path clip-path="url(#p8e15d0d21d)" d="M 91.568849 61.56 
L 94.950668 61.56 
L 94.950668 55.469244 
L 91.568849 55.469244 
z
" style="fill:#737373;"/>
   </g>
   <g id="patch_20">
    <path clip-path="url(#p8e15d0d21d)" d="M 94.950668 61.56 
L 98.332486 61.56 
L 98.332486 49.378487 
L 94.950668 49.378487 
z
" style="fill:#737373;"/>
   </g>
   <g id="patch_21">
    <path clip-path="url(#p8e15d0d21d)" d="M 98.332486 61.56 
L 101.714304 61.56 
L 101.714304 61.56 
L 98.332486 61.56 
z
" style="fill:#737373;"/>
   </g>
   <g id="patch_22">
    <path clip-path="url(#p8e15d0d21d)" d="M 101.714304 61.56 
L 105.096122 61.56 
L 105.096122 61.56 
L 101.714304 61.56 
z
" style="fill:#737373;"/>
   </g>
   <g id="patch_23">
    <path clip-path="url(#p8e15d0d21d)" d="M 105.096122 61.56 
L 108.47794 61.56 
L 108.47794 61.56 
L 105.096122 61.56 
z
" style="fill:#737373;"/>
   </g>
   <g id="patch_24">
    <path clip-path="url(#p8e15d0d21d)" d="M 108.47794 61.56 
L 111.859759 61.56 
L 111.859759 61.56 
L 108.47794 61.56 
z
" style="fill:#737373;"/>
   </g>
   <g id="patch_25">
    <path clip-path="url(#p8e15d0d21d)" d="M 111.859759 61.56 
L 115.241577 61.56 
L 115.241577 61.56 
L 111.859759 61.56 
z
" style="fill:#737373;"/>
   </g>
   <g id="patch_26">
    <path clip-path="url(#p8e15d0d21d)" d="M 115.241577 61.56 
L 118.623395 61.56 
L 118.623395 61.56 
L 115.241577 61.56 
z
" style="fill:#737373;"/>
   </g>
   <g id="patch_27">
    <path clip-path="url(#p8e15d0d21d)" d="M 118.623395 61.56 
L 122.005213 61.56 
L 122.005213 61.56 
L 118.623395 61.56 
z
" style="fill:#737373;"/>
   </g>
   <g id="patch_28">
    <path clip-path="url(#p8e15d0d21d)" d="M 122.005213 61.56 
L 125.387031 61.56 
L 125.387031 61.56 
L 122.005213 61.56 
z
" style="fill:#737373;"/>
   </g>
   <g id="patch_29">
    <path clip-path="url(#p8e15d0d21d)" d="M 125.387031 61.56 
L 128.768849 61.56 
L 128.768849 61.56 
L 125.387031 61.56 
z
" style="fill:#737373;"/>
   </g>
   <g id="patch_30">
    <path clip-path="url(#p8e15d0d21d)" d="M 128.768849 61.56 
L 132.150668 61.56 
L 132.150668 61.56 
L 128.768849 61.56 
z
" style="fill:#737373;"/>
   </g>
   <g id="patch_31">
    <path clip-path="url(#p8e15d0d21d)" d="M 132.150668 61.56 
L 135.532486 61.56 
L 135.532486 61.56 
L 132.150668 61.56 
z
" style="fill:#737373;"/>
   </g>
   <g id="patch_32">
    <path clip-path="url(#p8e15d0d21d)" d="M 135.532486 61.56 
L 138.914304 61.56 
L 138.914304 61.56 
L 135.532486 61.56 
z
" style="fill:#737373;"/>
   </g>
   <g id="patch_33">
    <path clip-path="url(#p8e15d0d21d)" d="M 37.459759 61.56 
L 40.841577 61.56 
L 40.841577 61.56 
L 37.459759 61.56 
z
" style="fill:#bdbdbd;"/>
   </g>
   <g id="patch_34">
    <path clip-path="url(#p8e15d0d21d)" d="M 40.841577 61.56 
L 44.223395 61.56 
L 44.223395 61.56 
L 40.841577 61.56 
z
" style="fill:#bdbdbd;"/>
   </g>
   <g id="patch_35">
    <path clip-path="url(#p8e15d0d21d)" d="M 44.223395 61.56 
L 47.605213 61.56 
L 47.605213 61.56 
L 44.223395 61.56 
z
" style="fill:#bdbdbd;"/>
   </g>
   <g id="patch_36">
    <path clip-path="url(#p8e15d0d21d)" d="M 47.605213 61.56 
L 50.987031 61.56 
L 50.987031 61.56 
L 47.605213 61.56 
z
" style="fill:#bdbdbd;"/>
   </g>
   <g id="patch_37">
    <path clip-path="url(#p8e15d0d21d)" d="M 50.987031 61.56 
L 54.368849 61.56 
L 54.368849 61.56 
L 50.987031 61.56 
z
" style="fill:#bdbdbd;"/>
   </g>
   <g id="patch_38">
    <path clip-path="url(#p8e15d0d21d)" d="M 54.368849 61.56 
L 57.750668 61.56 
L 57.750668 61.56 
L 54.368849 61.56 
z
" style="fill:#bdbdbd;"/>
   </g>
   <g id="patch_39">
    <path clip-path="url(#p8e15d0d21d)" d="M 57.750668 61.56 
L 61.132486 61.56 
L 61.132486 61.56 
L 57.750668 61.56 
z
" style="fill:#bdbdbd;"/>
   </g>
   <g id="patch_40">
    <path clip-path="url(#p8e15d0d21d)" d="M 61.132486 61.56 
L 64.514304 61.56 
L 64.514304 61.56 
L 61.132486 61.56 
z
" style="fill:#bdbdbd;"/>
   </g>
   <g id="patch_41">
    <path clip-path="url(#p8e15d0d21d)" d="M 64.514304 61.56 
L 67.896122 61.56 
L 67.896122 61.56 
L 64.514304 61.56 
z
" style="fill:#bdbdbd;"/>
   </g>
   <g id="patch_42">
    <path clip-path="url(#p8e15d0d21d)" d="M 67.896122 61.56 
L 71.27794 61.56 
L 71.27794 61.56 
L 67.896122 61.56 
z
" style="fill:#bdbdbd;"/>
   </g>
   <g id="patch_43">
    <path clip-path="url(#p8e15d0d21d)" d="M 71.27794 61.56 
L 74.659759 61.56 
L 74.659759 61.56 
L 71.27794 61.56 
z
" style="fill:#bdbdbd;"/>
   </g>
   <g id="patch_44">
    <path clip-path="url(#p8e15d0d21d)" d="M 74.659759 61.56 
L 78.041577 61.56 
L 78.041577 61.56 
L 74.659759 61.56 
z
" style="fill:#bdbdbd;"/>
   </g>
   <g id="patch_45">
    <path clip-path="url(#p8e15d0d21d)" d="M 78.041577 61.56 
L 81.423395 61.56 
L 81.423395 61.56 
L 78.041577 61.56 
z
" style="fill:#bdbdbd;"/>
   </g>
   <g id="patch_46">
    <path clip-path="url(#p8e15d0d21d)" d="M 81.423395 61.56 
L 84.805213 61.56 
L 84.805213 61.56 
L 81.423395 61.56 
z
" style="fill:#bdbdbd;"/>
   </g>
   <g id="patch_47">
    <path clip-path="url(#p8e15d0d21d)" d="M 84.805213 61.56 
L 88.187031 61.56 
L 88.187031 61.56 
L 84.805213 61.56 
z
" style="fill:#bdbdbd;"/>
   </g>
   <g id="patch_48">
    <path clip-path="url(#p8e15d0d21d)" d="M 88.187031 61.56 
L 91.568849 61.56 
L 91.568849 61.56 
L 88.187031 61.56 
z
" style="fill:#bdbdbd;"/>
   </g>
   <g id="patch_49">
    <path clip-path="url(#p8e15d0d21d)" d="M 91.568849 61.56 
L 94.950668 61.56 
L 94.950668 61.56 
L 91.568849 61.56 
z
" style="fill:#bdbdbd;"/>
   </g>
   <g id="patch_50">
    <path clip-path="url(#p8e15d0d21d)" d="M 94.950668 61.56 
L 98.332486 61.56 
L 98.332486 61.56 
L 94.950668 61.56 
z
" style="fill:#bdbdbd;"/>
   </g>
   <g id="patch_51">
    <path clip-path="url(#p8e15d0d21d)" d="M 98.332486 61.56 
L 101.714304 61.56 
L 101.714304 58.514622 
L 98.332486 58.514622 
z
" style="fill:#bdbdbd;"/>
   </g>
   <g id="patch_52">
    <path clip-path="url(#p8e15d0d21d)" d="M 101.714304 61.56 
L 105.096122 61.56 
L 105.096122 58.514622 
L 101.714304 58.514622 
z
" style="fill:#bdbdbd;"/>
   </g>
   <g id="patch_53">
    <path clip-path="url(#p8e15d0d21d)" d="M 105.096122 61.56 
L 108.47794 61.56 
L 108.47794 61.56 
L 105.096122 61.56 
z
" style="fill:#bdbdbd;"/>
   </g>
   <g id="patch_54">
    <path clip-path="url(#p8e15d0d21d)" d="M 108.47794 61.56 
L 111.859759 61.56 
L 111.859759 55.469244 
L 108.47794 55.469244 
z
" style="fill:#bdbdbd;"/>
   </g>
   <g id="patch_55">
    <path clip-path="url(#p8e15d0d21d)" d="M 111.859759 61.56 
L 115.241577 61.56 
L 115.241577 43.287731 
L 111.859759 43.287731 
z
" style="fill:#bdbdbd;"/>
   </g>
   <g id="patch_56">
    <path clip-path="url(#p8e15d0d21d)" d="M 115.241577 61.56 
L 118.623395 61.56 
L 118.623395 55.469244 
L 115.241577 55.469244 
z
" style="fill:#bdbdbd;"/>
   </g>
   <g id="patch_57">
    <path clip-path="url(#p8e15d0d21d)" d="M 118.623395 61.56 
L 122.005213 61.56 
L 122.005213 55.469244 
L 118.623395 55.469244 
z
" style="fill:#bdbdbd;"/>
   </g>
   <g id="patch_58">
    <path clip-path="url(#p8e15d0d21d)" d="M 122.005213 61.56 
L 125.387031 61.56 
L 125.387031 61.56 
L 122.005213 61.56 
z
" style="fill:#bdbdbd;"/>
   </g>
   <g id="patch_59">
    <path clip-path="url(#p8e15d0d21d)" d="M 125.387031 61.56 
L 128.768849 61.56 
L 128.768849 58.514622 
L 125.387031 58.514622 
z
" style="fill:#bdbdbd;"/>
   </g>
   <g id="patch_60">
    <path clip-path="url(#p8e15d0d21d)" d="M 128.768849 61.56 
L 132.150668 61.56 
L 132.150668 61.56 
L 128.768849 61.56 
z
" style="fill:#bdbdbd;"/>
   </g>
   <g id="patch_61">
    <path clip-path="url(#p8e15d0d21d)" d="M 132.150668 61.56 
L 135.532486 61.56 
L 135.532486 61.56 
L 132.150668 61.56 
z
" style="fill:#bdbdbd;"/>
   </g>
   <g id="patch_62">
    <path clip-path="url(#p8e15d0d21d)" d="M 135.532486 61.56 
L 138.914304 61.56 
L 138.914304 61.56 
L 135.532486 61.56 
z
" style="fill:#bdbdbd;"/>
   </g>
   <g id="matplotlib.axis_1">
    <g id="xtick_1">
     <g id="line2d_1">
      <defs>
       <path d="M 0 0 
L 0 3.5 
" id="mf7ec8d0c1a" style="stroke:#000000;stroke-width:0.8;"/>
      </defs>
      <g>
       <use style="stroke:#000000;stroke-width:0.8;" x="34.385378" xlink:href="#mf7ec8d0c1a" y="61.56"/>
      </g>
     </g>
     <g id="text_1">
      <text style="font-family:Arial;font-size:7px;font-style:normal;font-weight:normal;text-anchor:middle;" transform="rotate(-0, 34.385378, 73.570469)" x="34.385378" y="73.570469">0</text>
     </g>
    </g>
    <g id="xtick_2">
     <g id="line2d_2">
      <g>
       <use style="stroke:#000000;stroke-width:0.8;" x="65.12918" xlink:href="#mf7ec8d0c1a" y="61.56"/>
      </g>
     </g>
     <g id="text_2">
      <text style="font-family:Arial;font-size:7px;font-style:normal;font-weight:normal;text-anchor:middle;" transform="rotate(-0, 65.12918, 73.570469)" x="65.12918" y="73.570469">50</text>
     </g>
    </g>
    <g id="xtick_3">
     <g id="line2d_3">
      <g>
       <use style="stroke:#000000;stroke-width:0.8;" x="95.872982" xlink:href="#mf7ec8d0c1a" y="61.56"/>
      </g>
     </g>
     <g id="text_3">
      <text style="font-family:Arial;font-size:7px;font-style:normal;font-weight:normal;text-anchor:middle;" transform="rotate(-0, 95.872982, 73.570469)" x="95.872982" y="73.570469">100</text>
     </g>
    </g>
    <g id="xtick_4">
     <g id="line2d_4">
      <g>
       <use style="stroke:#000000;stroke-width:0.8;" x="126.616783" xlink:href="#mf7ec8d0c1a" y="61.56"/>
      </g>
     </g>
     <g id="text_4">
      <text style="font-family:Arial;font-size:7px;font-style:normal;font-weight:normal;text-anchor:middle;" transform="rotate(-0, 126.616783, 73.570469)" x="126.616783" y="73.570469">150</text>
     </g>
    </g>
    <g id="text_5">
     <text style="font-family:Arial;font-size:7px;font-style:normal;font-weight:normal;text-anchor:middle;" transform="rotate(-0, 88.187031, 83.972187)" x="88.187031" y="83.972187">Length</text>
    </g>
   </g>
   <g id="matplotlib.axis_2">
    <g id="ytick_1">
     <g id="line2d_5">
      <defs>
       <path d="M 0 0 
L -3.5 0 
" id="m1bbb3dfaec" style="stroke:#000000;stroke-width:0.8;"/>
      </defs>
      <g>
       <use style="stroke:#000000;stroke-width:0.8;" x="32.387031" xlink:href="#m1bbb3dfaec" y="61.56"/>
      </g>
     </g>
     <g id="text_6">
      <text style="font-family:Arial;font-size:7px;font-style:normal;font-weight:normal;text-anchor:end;" transform="rotate(-0, 25.387031, 64.065234)" x="25.387031" y="64.065234">0</text>
     </g>
    </g>
    <g id="ytick_2">
     <g id="line2d_6">
      <g>
       <use style="stroke:#000000;stroke-width:0.8;" x="32.387031" xlink:href="#m1bbb3dfaec" y="31.106218"/>
      </g>
     </g>
     <g id="text_7">
      <text style="font-family:Arial;font-size:7px;font-style:normal;font-weight:normal;text-anchor:end;" transform="rotate(-0, 25.387031, 33.611453)" x="25.387031" y="33.611453">10</text>
     </g>
    </g>
    <g id="text_8">
     <text style="font-family:Arial;font-size:7px;font-style:normal;font-weight:normal;text-anchor:middle;" transform="rotate(-90, 12.210469, 34.38)" x="12.210469" y="34.38">Count</text>
    </g>
   </g>
   <g id="line2d_7">
    <path clip-path="url(#p8e15d0d21d)" d="M 98.332486 61.56 
L 98.332486 7.2 
" style="fill:none;stroke:#000000;stroke-dasharray:3.7,1.6;stroke-dashoffset:0;"/>
   </g>
   <g id="patch_63">
    <path d="M 32.387031 61.56 
L 32.387031 7.2 
" style="fill:none;stroke:#000000;stroke-linecap:square;stroke-linejoin:miter;"/>
   </g>
   <g id="patch_64">
    <path d="M 143.987031 61.56 
L 143.987031 7.2 
" style="fill:none;stroke:#000000;stroke-linecap:square;stroke-linejoin:miter;"/>
   </g>
   <g id="patch_65">
    <path d="M 32.387031 61.56 
L 143.987031 61.56 
" style="fill:none;stroke:#000000;stroke-linecap:square;stroke-linejoin:miter;"/>
   </g>
   <g id="patch_66">
    <path d="M 32.387031 7.2 
L 143.987031 7.2 
" style="fill:none;stroke:#000000;stroke-linecap:square;stroke-linejoin:miter;"/>
   </g>
   <g id="text_9">
    <text style="font-family:Arial;font-size:7px;font-style:normal;font-weight:normal;" transform="translate(66.950196 17.844418)">Included</text>
    <text style="font-family:Arial;font-size:7px;font-style:normal;font-weight:normal;" transform="translate(66.963321 25.248231)">in library</text>
   </g>
   <g id="text_10">
    <text style="font-family:Arial;font-size:7px;font-style:normal;font-weight:normal;" transform="translate(103.251494 17.844418)">Excluded</text>
    <text style="font-family:Arial;font-size:7px;font-style:normal;font-weight:normal;" transform="translate(103.251494 25.350606)">from library</text>
   </g>
  </g>
 </g>
 <defs>
  <clipPath id="p8e15d0d21d">
   <rect height="54.36" width="111.6" x="32.387031" y="7.2"/>
  </clipPath>
 </defs>
</svg>
