<?xml version="1.0" encoding="utf-8" standalone="no"?>
<!DOCTYPE svg PUBLIC "-//W3C//DTD SVG 1.1//EN"
  "http://www.w3.org/Graphics/SVG/1.1/DTD/svg11.dtd">
<!-- Created with matplotlib (https://matplotlib.org/) -->
<svg height="91.439062pt" version="1.1" viewBox="0 0 101.921563 91.439062" width="101.921563pt" xmlns="http://www.w3.org/2000/svg" xmlns:xlink="http://www.w3.org/1999/xlink">
 <defs>
  <style type="text/css">
*{stroke-linecap:butt;stroke-linejoin:round;}
  </style>
 </defs>
 <g id="figure_1">
  <g id="patch_1">
   <path d="M 0 91.439062 
L 101.921563 91.439062 
L 101.921563 0 
L 0 0 
z
" style="fill:#ffffff;"/>
  </g>
  <g id="axes_1">
   <g id="patch_2">
    <path d="M 36.672344 61.56 
L 92.472344 61.56 
L 92.472344 7.2 
L 36.672344 7.2 
z
" style="fill:#ffffff;"/>
   </g>
   <g id="patch_3">
    <path clip-path="url(#pdb8bb51baa)" d="M 38.285475 61.56 
L 38.285475 7.2 
L 44.658012 7.2 
L 44.658012 61.56 
z
" style="fill:#bdbdbd;opacity:0.4;"/>
   </g>
   <g id="patch_4">
    <path clip-path="url(#pdb8bb51baa)" d="M 44.976692 61.56 
L 44.976692 7.2 
L 51.349339 7.2 
L 51.349339 61.56 
z
" style="fill:#737373;opacity:0.4;"/>
   </g>
   <g id="patch_5">
    <path clip-path="url(#pdb8bb51baa)" d="M 51.34957 61.56 
L 51.34957 7.2 
L 58.040635 7.2 
L 58.040635 61.56 
z
" style="fill:#bdbdbd;opacity:0.4;"/>
   </g>
   <g id="patch_6">
    <path clip-path="url(#pdb8bb51baa)" d="M 58.040779 61.56 
L 58.040779 7.2 
L 64.413317 7.2 
L 64.413317 61.56 
z
" style="fill:#737373;opacity:0.4;"/>
   </g>
   <g id="patch_7">
    <path clip-path="url(#pdb8bb51baa)" d="M 64.731977 61.56 
L 64.731977 7.2 
L 71.10414 7.2 
L 71.10414 61.56 
z
" style="fill:#bdbdbd;opacity:0.4;"/>
   </g>
   <g id="patch_8">
    <path clip-path="url(#pdb8bb51baa)" d="M 71.104677 61.56 
L 71.104677 7.2 
L 77.477207 7.2 
L 77.477207 61.56 
z
" style="fill:#737373;opacity:0.4;"/>
   </g>
   <g id="patch_9">
    <path clip-path="url(#pdb8bb51baa)" d="M 77.795984 61.56 
L 77.795984 7.2 
L 84.168417 7.2 
L 84.168417 61.56 
z
" style="fill:#bdbdbd;opacity:0.4;"/>
   </g>
   <g id="patch_10">
    <path clip-path="url(#pdb8bb51baa)" d="M 84.168767 61.56 
L 84.168767 7.2 
L 90.859213 7.2 
L 90.859213 61.56 
z
" style="fill:#737373;opacity:0.4;"/>
   </g>
   <g id="patch_11">
    <path clip-path="url(#pdb8bb51baa)" d="M 36.672344 61.56 
L 36.672344 61.0164 
L 37.23221 61.101337 
L 37.23221 60.863512 
L 37.792076 60.846525 
L 37.792076 61.0164 
L 37.978698 61.0164 
L 37.978698 60.778575 
L 38.351942 60.7446 
L 38.351942 60.931462 
L 38.725187 60.863512 
L 38.725187 60.761587 
L 39.844919 60.795562 
L 39.844919 60.506775 
L 40.591407 60.4728 
L 40.591407 60.319912 
L 40.778029 60.319912 
L 40.778029 60.523762 
L 40.964651 60.523762 
L 40.964651 60.319912 
L 41.337896 60.319912 
L 41.337896 60.4728 
L 41.524518 60.4728 
L 41.524518 60.167025 
L 41.897762 60.082087 
L 41.897762 60.285937 
L 42.271006 60.26895 
L 42.271006 60.0651 
L 42.830872 59.99715 
L 42.830872 60.184012 
L 43.204116 60.167025 
L 43.204116 59.946187 
L 43.390738 59.946187 
L 43.390738 59.691375 
L 43.57736 59.691375 
L 43.57736 60.048112 
L 43.763983 60.048112 
L 43.763983 59.7933 
L 43.950605 59.7933 
L 43.950605 59.912212 
L 44.137227 59.912212 
L 44.137227 59.351625 
L 44.323849 59.351625 
L 44.323849 59.58945 
L 44.510471 59.58945 
L 44.510471 59.7933 
L 44.697093 59.7933 
L 44.697093 59.266687 
L 45.256959 59.31765 
L 45.256959 59.062837 
L 45.816825 59.011875 
L 45.816825 58.689112 
L 46.003447 58.689112 
L 46.003447 58.842 
L 46.19007 58.842 
L 46.19007 58.63815 
L 46.376692 58.63815 
L 46.376692 58.519237 
L 46.563314 58.519237 
L 46.563314 58.791037 
L 46.749936 58.791037 
L 46.749936 58.400325 
L 46.936558 58.400325 
L 46.936558 58.1625 
L 47.12318 58.1625 
L 47.12318 58.2984 
L 47.309802 58.2984 
L 47.309802 58.1625 
L 47.496424 58.1625 
L 47.496424 57.228187 
L 47.683046 57.228187 
L 47.683046 57.398062 
L 48.05629 57.483 
L 48.05629 57.194212 
L 48.242912 57.194212 
L 48.242912 57.0753 
L 48.429534 57.0753 
L 48.429534 57.27915 
L 48.616156 57.27915 
L 48.616156 57.024337 
L 48.802779 57.024337 
L 48.802779 56.310862 
L 49.362645 56.225925 
L 49.362645 56.073037 
L 49.549267 56.073037 
L 49.549267 55.767262 
L 49.735889 55.767262 
L 49.735889 55.529437 
L 49.922511 55.529437 
L 49.922511 54.934875 
L 50.109133 54.934875 
L 50.109133 55.10475 
L 50.295755 55.10475 
L 50.295755 55.4445 
L 50.482377 55.4445 
L 50.482377 54.748012 
L 50.668999 54.748012 
L 50.668999 54.3573 
L 50.855621 54.3573 
L 50.855621 53.762737 
L 51.042243 53.762737 
L 51.042243 53.355037 
L 51.228865 53.355037 
L 51.228865 53.643825 
L 51.415488 53.643825 
L 51.415488 53.015287 
L 51.60211 53.015287 
L 51.60211 52.539637 
L 51.788732 52.539637 
L 51.788732 52.165912 
L 51.975354 52.165912 
L 51.975354 51.724237 
L 52.161976 51.724237 
L 52.161976 51.43545 
L 52.348598 51.43545 
L 52.348598 51.622312 
L 52.53522 51.622312 
L 52.53522 50.75595 
L 53.095086 50.75595 
L 53.095086 50.127412 
L 53.281708 50.127412 
L 53.281708 48.7854 
L 53.46833 48.7854 
L 53.46833 47.715187 
L 53.654952 47.715187 
L 53.654952 47.443387 
L 53.841575 47.443387 
L 53.841575 46.390162 
L 54.028197 46.390162 
L 54.028197 45.72765 
L 54.401441 45.761625 
L 54.401441 44.929237 
L 54.588063 44.929237 
L 54.588063 43.315425 
L 54.961307 43.247475 
L 54.961307 42.228225 
L 55.147929 42.228225 
L 55.147929 41.51475 
L 55.334551 41.51475 
L 55.334551 41.005125 
L 55.521173 41.005125 
L 55.521173 39.765037 
L 55.707795 39.765037 
L 55.707795 38.457 
L 56.081039 38.440012 
L 56.081039 37.522687 
L 56.267661 37.522687 
L 56.267661 37.081012 
L 56.454284 37.081012 
L 56.454284 36.197662 
L 56.640906 36.197662 
L 56.640906 34.85565 
L 56.827528 34.85565 
L 56.827528 34.295062 
L 57.01415 34.295062 
L 57.01415 34.159162 
L 57.200772 34.159162 
L 57.200772 32.00175 
L 57.387394 32.00175 
L 57.387394 30.319987 
L 57.574016 30.319987 
L 57.574016 29.6235 
L 57.760638 29.6235 
L 57.760638 28.825087 
L 57.94726 28.825087 
L 57.94726 28.281487 
L 58.133882 28.281487 
L 58.133882 25.5465 
L 58.320504 25.5465 
L 58.320504 26.276962 
L 58.507126 26.276962 
L 58.507126 25.5465 
L 58.693748 25.5465 
L 58.693748 22.998375 
L 58.880371 22.998375 
L 58.880371 22.726575 
L 59.066993 22.726575 
L 59.066993 21.231675 
L 59.253615 21.231675 
L 59.253615 19.108237 
L 59.440237 19.108237 
L 59.440237 19.346062 
L 59.626859 19.346062 
L 59.626859 17.5284 
L 59.813481 17.5284 
L 59.813481 15.7617 
L 60.000103 15.7617 
L 60.000103 16.899862 
L 60.186725 16.899862 
L 60.186725 15.337012 
L 60.373347 15.337012 
L 60.373347 16.203375 
L 60.559969 16.203375 
L 60.559969 14.317762 
L 60.746591 14.317762 
L 60.746591 13.65525 
L 60.933213 13.65525 
L 60.933213 14.249812 
L 61.119835 14.249812 
L 61.119835 12.381187 
L 61.306457 12.381187 
L 61.306457 13.162612 
L 61.49308 13.162612 
L 61.49308 13.4514 
L 61.679702 13.4514 
L 61.679702 11.446875 
L 61.866324 11.446875 
L 61.866324 13.740187 
L 62.052946 13.740187 
L 62.052946 14.028975 
L 62.239568 14.028975 
L 62.239568 13.79115 
L 62.42619 13.79115 
L 62.42619 14.708475 
L 62.612812 14.708475 
L 62.612812 14.368725 
L 62.799434 14.368725 
L 62.799434 17.137687 
L 62.986056 17.137687 
L 62.986056 16.560112 
L 63.172678 16.560112 
L 63.172678 17.086725 
L 63.3593 17.086725 
L 63.3593 19.09125 
L 63.545922 19.09125 
L 63.545922 18.938362 
L 63.732544 18.938362 
L 63.732544 20.31435 
L 63.919166 20.31435 
L 63.919166 22.981387 
L 64.105789 22.981387 
L 64.105789 22.4208 
L 64.292411 22.4208 
L 64.292411 24.544237 
L 64.479033 24.544237 
L 64.479033 25.903237 
L 64.665655 25.903237 
L 64.665655 28.587262 
L 64.852277 28.587262 
L 64.852277 29.572537 
L 65.038899 29.572537 
L 65.038899 32.052712 
L 65.225521 32.052712 
L 65.225521 33.445687 
L 65.412143 33.445687 
L 65.412143 34.821675 
L 65.598765 34.821675 
L 65.598765 35.8749 
L 65.785387 35.8749 
L 65.785387 38.355075 
L 65.972009 38.355075 
L 65.972009 39.20445 
L 66.158631 39.20445 
L 66.158631 41.684625 
L 66.345253 41.684625 
L 66.345253 42.19425 
L 66.531876 42.19425 
L 66.531876 43.96095 
L 66.718498 43.96095 
L 66.718498 43.7571 
L 66.90512 43.7571 
L 66.90512 45.7956 
L 67.091742 45.7956 
L 67.091742 47.919037 
L 67.278364 47.919037 
L 67.278364 48.615525 
L 67.464986 48.615525 
L 67.464986 48.870337 
L 67.651608 48.870337 
L 67.651608 49.244062 
L 67.83823 49.244062 
L 67.83823 51.0957 
L 68.024852 51.0957 
L 68.024852 51.3675 
L 68.211474 51.3675 
L 68.211474 50.942812 
L 68.398096 50.942812 
L 68.398096 51.588337 
L 68.584718 51.588337 
L 68.584718 52.080975 
L 68.77134 52.080975 
L 68.77134 52.403737 
L 68.957962 52.403737 
L 68.957962 52.8624 
L 69.144585 52.8624 
L 69.144585 53.490937 
L 69.331207 53.490937 
L 69.331207 53.219137 
L 69.517829 53.219137 
L 69.517829 53.728762 
L 69.704451 53.728762 
L 69.704451 54.15345 
L 69.891073 54.15345 
L 69.891073 54.28935 
L 70.077695 54.28935 
L 70.077695 54.476212 
L 70.450939 54.42525 
L 70.450939 55.563412 
L 70.637561 55.563412 
L 70.637561 54.6291 
L 70.824183 54.6291 
L 70.824183 55.223662 
L 71.010805 55.223662 
L 71.010805 54.951862 
L 71.197427 54.951862 
L 71.197427 55.750275 
L 71.384049 55.750275 
L 71.384049 56.039062 
L 71.757294 56.022075 
L 71.757294 55.665337 
L 71.943916 55.665337 
L 71.943916 56.073037 
L 72.130538 56.073037 
L 72.130538 56.310862 
L 72.31716 56.310862 
L 72.31716 56.090025 
L 72.503782 56.090025 
L 72.503782 56.446762 
L 72.690404 56.446762 
L 72.690404 56.208937 
L 72.877026 56.208937 
L 72.877026 56.820487 
L 73.063648 56.820487 
L 73.063648 55.699312 
L 73.25027 55.699312 
L 73.25027 56.480737 
L 73.436892 56.480737 
L 73.436892 56.905425 
L 73.623514 56.905425 
L 73.623514 56.548687 
L 73.810136 56.548687 
L 73.810136 56.344837 
L 74.183381 56.446762 
L 74.183381 56.19195 
L 74.743247 56.276887 
L 74.743247 56.650612 
L 74.929869 56.650612 
L 74.929869 55.835212 
L 75.116491 55.835212 
L 75.116491 56.378812 
L 75.489735 56.412787 
L 75.489735 56.039062 
L 76.049601 55.9881 
L 76.049601 56.276887 
L 76.236223 56.276887 
L 76.236223 55.597387 
L 76.422845 55.597387 
L 76.422845 55.461487 
L 76.609467 55.461487 
L 76.609467 55.342575 
L 77.169334 55.257637 
L 77.169334 54.96885 
L 77.355956 54.96885 
L 77.355956 55.51245 
L 77.542578 55.51245 
L 77.542578 55.070775 
L 77.7292 55.070775 
L 77.7292 54.765 
L 77.915822 54.765 
L 77.915822 55.087762 
L 78.102444 55.087762 
L 78.102444 55.597387 
L 78.289066 55.597387 
L 78.289066 55.274625 
L 78.475688 55.274625 
L 78.475688 55.7163 
L 78.848932 55.699312 
L 78.848932 54.917887 
L 79.222177 54.985837 
L 79.222177 55.274625 
L 79.408799 55.274625 
L 79.408799 55.002825 
L 79.595421 55.002825 
L 79.595421 55.7163 
L 79.968665 55.78425 
L 79.968665 55.393537 
L 80.155287 55.393537 
L 80.155287 55.138725 
L 80.341909 55.138725 
L 80.341909 56.090025 
L 80.528531 56.090025 
L 80.528531 55.903162 
L 81.088397 55.954125 
L 81.088397 56.344837 
L 81.275019 56.344837 
L 81.275019 55.954125 
L 81.461641 55.954125 
L 81.461641 57.262162 
L 81.834886 57.2112 
L 81.834886 57.092287 
L 82.021508 57.092287 
L 82.021508 57.432037 
L 82.394752 57.41505 
L 82.394752 57.720825 
L 82.581374 57.720825 
L 82.581374 57.992625 
L 82.954618 57.992625 
L 82.954618 58.485262 
L 83.14124 58.485262 
L 83.14124 58.0266 
L 83.327862 58.0266 
L 83.327862 58.7061 
L 83.514484 58.7061 
L 83.514484 58.536225 
L 83.701106 58.536225 
L 83.701106 59.147775 
L 83.887728 59.147775 
L 83.887728 59.028862 
L 84.07435 59.028862 
L 84.07435 59.45355 
L 84.447595 59.402587 
L 84.447595 59.028862 
L 84.634217 59.028862 
L 84.634217 59.402587 
L 84.820839 59.402587 
L 84.820839 59.555475 
L 85.194083 59.640412 
L 85.194083 60.082087 
L 85.380705 60.082087 
L 85.380705 59.895225 
L 85.567327 59.895225 
L 85.567327 60.0651 
L 86.127193 60.150037 
L 86.127193 60.234975 
L 86.313815 60.234975 
L 86.313815 60.4728 
L 86.687059 60.370875 
L 86.687059 60.761587 
L 87.060304 60.761587 
L 87.060304 60.8805 
L 87.246926 60.8805 
L 87.246926 60.659662 
L 87.62017 60.7446 
L 87.62017 61.067362 
L 88.739902 61.135312 
L 88.739902 61.22025 
L 88.926524 61.22025 
L 88.926524 61.373137 
L 89.113146 61.373137 
L 89.113146 61.22025 
L 89.673013 61.254225 
L 89.673013 61.407112 
L 91.725855 61.4241 
L 91.725855 61.526025 
L 92.472344 61.441087 
L 92.472344 61.56 
" style="fill:none;stroke:#000000;stroke-linejoin:miter;"/>
   </g>
   <g id="matplotlib.axis_1">
    <g id="xtick_1">
     <g id="line2d_1">
      <defs>
       <path d="M 0 0 
L 0 -3.5 
" id="mf826ec6b62" style="stroke:#000000;stroke-width:0.8;"/>
      </defs>
      <g>
       <use style="stroke:#000000;stroke-width:0.8;" x="40.495905" xlink:href="#mf826ec6b62" y="61.56"/>
      </g>
     </g>
     <g id="text_1">
      <!-- $\mathdefault{10^{3}}$ -->
      <g transform="translate(35.000905 72.27875)">
       <text>
        <tspan style="font-family:Arial;font-size:7px;font-style:regular;font-weight:regular;" x="0 3.893066" y="-0.5995625000000011">10</tspan>
        <tspan style="font-family:Arial;font-size:4.9px;font-style:regular;font-weight:regular;" x="7.908097" y="-5.478125">3</tspan>
       </text>
      </g>
     </g>
    </g>
    <g id="xtick_2">
     <g id="line2d_2">
      <g>
       <use style="stroke:#000000;stroke-width:0.8;" x="60.868545" xlink:href="#mf826ec6b62" y="61.56"/>
      </g>
     </g>
     <g id="text_2">
      <!-- $\mathdefault{10^{4}}$ -->
      <g transform="translate(55.373545 72.20875)">
       <text>
        <tspan style="font-family:Arial;font-size:7px;font-style:regular;font-weight:regular;" x="0 3.893066" y="-0.6105000000000018">10</tspan>
        <tspan style="font-family:Arial;font-size:4.9px;font-style:regular;font-weight:regular;" x="7.908097" y="-5.489062500000001">4</tspan>
       </text>
      </g>
     </g>
    </g>
    <g id="xtick_3">
     <g id="line2d_3">
      <g>
       <use style="stroke:#000000;stroke-width:0.8;" x="81.241185" xlink:href="#mf826ec6b62" y="61.56"/>
      </g>
     </g>
     <g id="text_3">
      <!-- $\mathdefault{10^{5}}$ -->
      <g transform="translate(75.746185 72.20875)">
       <text>
        <tspan style="font-family:Arial;font-size:7px;font-style:regular;font-weight:regular;" x="0 3.893066" y="-0.6651875000000018">10</tspan>
        <tspan style="font-family:Arial;font-size:4.9px;font-style:regular;font-weight:regular;" x="7.908097" y="-5.543750000000001">5</tspan>
       </text>
      </g>
     </g>
    </g>
    <g id="xtick_4">
     <g id="line2d_4">
      <defs>
       <path d="M 0 0 
L 0 -2 
" id="md597b5d08a" style="stroke:#000000;stroke-width:0.6;"/>
      </defs>
      <g>
       <use style="stroke:#000000;stroke-width:0.6;" x="37.340143" xlink:href="#md597b5d08a" y="61.56"/>
      </g>
     </g>
    </g>
    <g id="xtick_5">
     <g id="line2d_5">
      <g>
       <use style="stroke:#000000;stroke-width:0.6;" x="38.521592" xlink:href="#md597b5d08a" y="61.56"/>
      </g>
     </g>
    </g>
    <g id="xtick_6">
     <g id="line2d_6">
      <g>
       <use style="stroke:#000000;stroke-width:0.6;" x="39.563704" xlink:href="#md597b5d08a" y="61.56"/>
      </g>
     </g>
    </g>
    <g id="xtick_7">
     <g id="line2d_7">
      <g>
       <use style="stroke:#000000;stroke-width:0.6;" x="46.628681" xlink:href="#md597b5d08a" y="61.56"/>
      </g>
     </g>
    </g>
    <g id="xtick_8">
     <g id="line2d_8">
      <g>
       <use style="stroke:#000000;stroke-width:0.6;" x="50.216125" xlink:href="#md597b5d08a" y="61.56"/>
      </g>
     </g>
    </g>
    <g id="xtick_9">
     <g id="line2d_9">
      <g>
       <use style="stroke:#000000;stroke-width:0.6;" x="52.761457" xlink:href="#md597b5d08a" y="61.56"/>
      </g>
     </g>
    </g>
    <g id="xtick_10">
     <g id="line2d_10">
      <g>
       <use style="stroke:#000000;stroke-width:0.6;" x="54.73577" xlink:href="#md597b5d08a" y="61.56"/>
      </g>
     </g>
    </g>
    <g id="xtick_11">
     <g id="line2d_11">
      <g>
       <use style="stroke:#000000;stroke-width:0.6;" x="56.348901" xlink:href="#md597b5d08a" y="61.56"/>
      </g>
     </g>
    </g>
    <g id="xtick_12">
     <g id="line2d_12">
      <g>
       <use style="stroke:#000000;stroke-width:0.6;" x="57.712783" xlink:href="#md597b5d08a" y="61.56"/>
      </g>
     </g>
    </g>
    <g id="xtick_13">
     <g id="line2d_13">
      <g>
       <use style="stroke:#000000;stroke-width:0.6;" x="58.894232" xlink:href="#md597b5d08a" y="61.56"/>
      </g>
     </g>
    </g>
    <g id="xtick_14">
     <g id="line2d_14">
      <g>
       <use style="stroke:#000000;stroke-width:0.6;" x="59.936344" xlink:href="#md597b5d08a" y="61.56"/>
      </g>
     </g>
    </g>
    <g id="xtick_15">
     <g id="line2d_15">
      <g>
       <use style="stroke:#000000;stroke-width:0.6;" x="67.001321" xlink:href="#md597b5d08a" y="61.56"/>
      </g>
     </g>
    </g>
    <g id="xtick_16">
     <g id="line2d_16">
      <g>
       <use style="stroke:#000000;stroke-width:0.6;" x="70.588765" xlink:href="#md597b5d08a" y="61.56"/>
      </g>
     </g>
    </g>
    <g id="xtick_17">
     <g id="line2d_17">
      <g>
       <use style="stroke:#000000;stroke-width:0.6;" x="73.134097" xlink:href="#md597b5d08a" y="61.56"/>
      </g>
     </g>
    </g>
    <g id="xtick_18">
     <g id="line2d_18">
      <g>
       <use style="stroke:#000000;stroke-width:0.6;" x="75.10841" xlink:href="#md597b5d08a" y="61.56"/>
      </g>
     </g>
    </g>
    <g id="xtick_19">
     <g id="line2d_19">
      <g>
       <use style="stroke:#000000;stroke-width:0.6;" x="76.721541" xlink:href="#md597b5d08a" y="61.56"/>
      </g>
     </g>
    </g>
    <g id="xtick_20">
     <g id="line2d_20">
      <g>
       <use style="stroke:#000000;stroke-width:0.6;" x="78.085423" xlink:href="#md597b5d08a" y="61.56"/>
      </g>
     </g>
    </g>
    <g id="xtick_21">
     <g id="line2d_21">
      <g>
       <use style="stroke:#000000;stroke-width:0.6;" x="79.266873" xlink:href="#md597b5d08a" y="61.56"/>
      </g>
     </g>
    </g>
    <g id="xtick_22">
     <g id="line2d_22">
      <g>
       <use style="stroke:#000000;stroke-width:0.6;" x="80.308984" xlink:href="#md597b5d08a" y="61.56"/>
      </g>
     </g>
    </g>
    <g id="xtick_23">
     <g id="line2d_23">
      <g>
       <use style="stroke:#000000;stroke-width:0.6;" x="87.373961" xlink:href="#md597b5d08a" y="61.56"/>
      </g>
     </g>
    </g>
    <g id="xtick_24">
     <g id="line2d_24">
      <g>
       <use style="stroke:#000000;stroke-width:0.6;" x="90.961405" xlink:href="#md597b5d08a" y="61.56"/>
      </g>
     </g>
    </g>
    <g id="text_4">
     <text style="font-family:Arial;font-size:7px;font-style:normal;font-weight:normal;text-anchor:middle;" transform="rotate(-0, 64.572344, 82.765781)" x="64.572344" y="82.765781">Fluorescence (a.u.)</text>
    </g>
   </g>
   <g id="matplotlib.axis_2">
    <g id="ytick_1">
     <g id="line2d_25">
      <defs>
       <path d="M 0 0 
L 3.5 0 
" id="me6422d797e" style="stroke:#000000;stroke-width:0.8;"/>
      </defs>
      <g>
       <use style="stroke:#000000;stroke-width:0.8;" x="36.672344" xlink:href="#me6422d797e" y="61.56"/>
      </g>
     </g>
     <g id="text_5">
      <text style="font-family:Arial;font-size:7px;font-style:normal;font-weight:normal;text-anchor:end;" transform="rotate(-0, 33.172344, 64.065234)" x="33.172344" y="64.065234">0</text>
     </g>
    </g>
    <g id="ytick_2">
     <g id="line2d_26">
      <g>
       <use style="stroke:#000000;stroke-width:0.8;" x="36.672344" xlink:href="#me6422d797e" y="44.5725"/>
      </g>
     </g>
     <g id="text_6">
      <text style="font-family:Arial;font-size:7px;font-style:normal;font-weight:normal;text-anchor:end;" transform="rotate(-0, 33.172344, 47.077734)" x="33.172344" y="47.077734">1000</text>
     </g>
    </g>
    <g id="ytick_3">
     <g id="line2d_27">
      <g>
       <use style="stroke:#000000;stroke-width:0.8;" x="36.672344" xlink:href="#me6422d797e" y="27.585"/>
      </g>
     </g>
     <g id="text_7">
      <text style="font-family:Arial;font-size:7px;font-style:normal;font-weight:normal;text-anchor:end;" transform="rotate(-0, 33.172344, 30.090234)" x="33.172344" y="30.090234">2000</text>
     </g>
    </g>
    <g id="ytick_4">
     <g id="line2d_28">
      <g>
       <use style="stroke:#000000;stroke-width:0.8;" x="36.672344" xlink:href="#me6422d797e" y="10.5975"/>
      </g>
     </g>
     <g id="text_8">
      <text style="font-family:Arial;font-size:7px;font-style:normal;font-weight:normal;text-anchor:end;" transform="rotate(-0, 33.172344, 13.102734)" x="33.172344" y="13.102734">3000</text>
     </g>
    </g>
    <g id="text_9">
     <text style="font-family:Arial;font-size:7px;font-style:normal;font-weight:normal;text-anchor:middle;" transform="rotate(-90, 12.210469, 34.38)" x="12.210469" y="34.38">Count</text>
    </g>
   </g>
   <g id="patch_12">
    <path d="M 36.672344 61.56 
L 36.672344 7.2 
" style="fill:none;stroke:#000000;stroke-linecap:square;stroke-linejoin:miter;"/>
   </g>
   <g id="patch_13">
    <path d="M 92.472344 61.56 
L 92.472344 7.2 
" style="fill:none;stroke:#000000;stroke-linecap:square;stroke-linejoin:miter;"/>
   </g>
   <g id="patch_14">
    <path d="M 36.672344 61.56 
L 92.472344 61.56 
" style="fill:none;stroke:#000000;stroke-linecap:square;stroke-linejoin:miter;"/>
   </g>
   <g id="patch_15">
    <path d="M 36.672344 7.2 
L 92.472344 7.2 
" style="fill:none;stroke:#000000;stroke-linecap:square;stroke-linejoin:miter;"/>
   </g>
  </g>
 </g>
 <defs>
  <clipPath id="pdb8bb51baa">
   <rect height="54.36" width="55.8" x="36.672344" y="7.2"/>
  </clipPath>
 </defs>
</svg>
